PathFileType	4	(X/Y/Z)	/Users/itak/Documents/Research/Walk-IL/dataset/trc/00532_00183.trc
DataRate	CameraRate	NumFrames	NumMarkers	Units	OrigDataRate	OrigDataStartFrame	OrigNumFrames
100.000000	100.000000	4	53	mm	100.000000	371	495
Frame#	Time	RPSI			LPSI			L3			STRN			T10			C7			CLAV			RBAK			LBAK			LSHO			LUPA			LAEL			LAOL			LWTS			LWPS			LFRA			LIFD			LHPS			LHTS			RSHO			RUPA			RAEL			RAOL			RWTS			RWPS			RFRA			RIFD			RHTS			RHPS			RBHD			LFHD			RFHD			LBHD			LHIP			RHIP			RASI			LASI			LKNE			LTHI			LANK			LTIP			LTOE			LMT1			LMT5			LHEE			RKNE			RTHI			RANK			RTIP			RTOE			RMT1			RMT5			RHEE			
		X1	Y1	Z1	X2	Y2	Z2	X3	Y3	Z3	X4	Y4	Z4	X5	Y5	Z5	X6	Y6	Z6	X7	Y7	Z7	X8	Y8	Z8	X9	Y9	Z9	X10	Y10	Z10	X11	Y11	Z11	X12	Y12	Z12	X13	Y13	Z13	X14	Y14	Z14	X15	Y15	Z15	X16	Y16	Z16	X17	Y17	Z17	X18	Y18	Z18	X19	Y19	Z19	X20	Y20	Z20	X21	Y21	Z21	X22	Y22	Z22	X23	Y23	Z23	X24	Y24	Z24	X25	Y25	Z25	X26	Y26	Z26	X27	Y27	Z27	X28	Y28	Z28	X29	Y29	Z29	X30	Y30	Z30	X31	Y31	Z31	X32	Y32	Z32	X33	Y33	Z33	X34	Y34	Z34	X35	Y35	Z35	X36	Y36	Z36	X37	Y37	Z37	X38	Y38	Z38	X39	Y39	Z39	X40	Y40	Z40	X41	Y41	Z41	X42	Y42	Z42	X43	Y43	Z43	X44	Y44	Z44	X45	Y45	Z45	X46	Y46	Z46	X47	Y47	Z47	X48	Y48	Z48	X49	Y49	Z49	X50	Y50	Z50	X51	Y51	Z51	X52	Y52	Z52	X53	Y53	Z53	

372	3.71	702.3307495117188	946.6741943359375	476.6742858886719	771.8001098632812	947.698974609375	373.9629211425781	731.19921875	1017.443786621094	420.7552490234375	917.7676391601562	1193.459716796875	518.473876953125	713.7005004882812	1120.442260742188	415.5457763671875	738.0076293945312	1352.85498046875	426.6746826171875	880.9671630859375	1285.689453125	497.3884582519531	662.791748046875	1230.599487304688	487.3357543945312	757.2305297851562	1295.891967773438	339.7479248046875	871.8553466796875	1346.8857421875	314.5129699707031	895.8325805664062	1220.821655273438	257.0381774902344	931.6530151367188	1013.601013183594	238.8570098876953	839.252685546875	997.3712768554688	272.1972351074219	1014.096801757812	835.0469970703125	305.5945434570312	959.645751953125	793.5509643554688	241.3564300537109	954.06982421875	930.9519653320312	244.2406158447266	1032.063110351562	679.08349609375	315.6920471191406	986.95947265625	742.4545288085938	253.7719268798828	1037.345581054688	759.5588989257812	290.0935363769531	722.177001953125	1353.28564453125	584.0512084960938	682.3900146484375	1286.738525390625	628.9547119140625	662.17529296875	1020.823608398438	674.516357421875	640.3626708984375	1005.896545410156	612.703369140625	751.197509765625	816.3106079101562	711.4168701171875	663.1439208984375	797.5346069335938	700.3525390625	659.9381713867188	967.9815063476562	683.680419921875	743.154541015625	655.7413940429688	716.259765625	744.4100952148438	723.1060791015625	739.2720947265625	678.0187377929688	723.7714233398438	714.8826904296875	734.12548828125	1510.649658203125	513.7880249023438	912.9188232421875	1576.294677734375	451.9849243164062	849.0957641601562	1571.478881835938	561.8619384765625	803.840576171875	1514.29638671875	367.5958557128906	937.2879638671875	879.7626953125	328.1567687988281	725.6076049804688	851.333740234375	644.0259399414062	841.556884765625	903.2108154296875	640.8064575195312	970.6224365234375	919.8665161132812	436.546875	999.1465454101562	472.6196899414062	445.69091796875	992.9210815429688	625.1904907226562	399.12548828125	953.6424560546875	39.82307815551758	438.7402648925781	997.9835205078125	316.7705078125	443.618896484375	1087.8515625	28.87755012512207	597.3651123046875	1003.86572265625	36.30281448364258	581.5931396484375	1048.812377929688	33.34463500976562	490.0883178710938	882.3734130859375	38.22342300415039	467.3584289550781	818.4697875976562	472.8445739746094	653.5595092773438	765.994873046875	724.7278442382812	663.7586669921875	554.8580932617188	183.5414733886719	488.0844116210938	767.2296752929688	357.4927368164062	618.8502197265625	682.2252807617188	48.7321662902832	564.40380859375	672.4364013671875	84.25785827636719	498.4650573730469	598.7025756835938	109.3982543945312	558.1498413085938	554.1034545898438	204.5596466064453	421.0202331542969	
373	3.72	707.0670776367188	947.8280639648438	478.4400634765625	776.8323364257812	948.805908203125	375.9186706542969	736.7464599609375	1018.8056640625	422.0723266601562	923.20458984375	1194.429321289062	521.1098022460938	719.5618286132812	1121.837524414062	416.8970031738281	744.281005859375	1354.180297851562	428.4427185058594	886.653076171875	1286.779541015625	500.0001831054688	668.318603515625	1232.072265625	488.2787170410156	764.0658569335938	1297.363525390625	341.5167846679688	878.8583374023438	1348.416748046875	317.2682800292969	903.9061889648438	1222.557250976562	259.8461303710938	941.5352172851562	1015.541748046875	242.2031707763672	848.8262329101562	998.6937866210938	274.1351623535156	1024.652221679688	837.8684692382812	310.0079040527344	971.6900024414062	796.04345703125	244.6156005859375	964.591064453125	933.2941284179688	247.9067230224609	1043.901611328125	682.0550537109375	320.0613098144531	999.2032470703125	745.0618896484375	257.4170227050781	1048.837524414062	762.6595458984375	294.7010192871094	727.3712768554688	1354.4462890625	585.6669311523438	686.9917602539062	1288.002685546875	630.0990600585938	664.7716064453125	1022.220764160156	674.3810424804688	643.4625244140625	1007.426879882812	612.482666015625	752.7092895507812	817.29345703125	711.9641723632812	664.7296142578125	798.6915283203125	699.9938354492188	662.2611083984375	969.1923828125	683.2966918945312	744.457275390625	656.7637939453125	716.6952514648438	745.4153442382812	724.0958251953125	739.7145385742188	679.3390502929688	724.8948974609375	714.5963745117188	739.1911010742188	1511.5087890625	515.273193359375	918.0186767578125	1577.956176757812	454.3507690429688	853.552490234375	1573.130615234375	563.8701171875	809.7496337890625	1515.091186523438	369.5184936523438	942.157470703125	880.5296020507812	330.1587524414062	730.393798828125	852.8853759765625	646.1102905273438	846.2091064453125	904.6085815429688	642.4966430664062	975.7533569335938	920.6965942382812	438.5302124023438	1000.776184082031	472.4599304199219	446.5509643554688	996.009033203125	625.2693481445312	400.7078247070312	953.5853881835938	39.89346313476562	438.9713745117188	998.9675903320312	316.6031494140625	444.284912109375	1087.842895507812	28.71533393859863	597.5758666992188	1003.820556640625	36.15845489501953	581.7562255859375	1048.734252929688	33.33745956420898	490.3031921386719	882.2999877929688	38.21947860717773	467.6215209960938	827.4840087890625	475.3689270019531	657.7267456054688	771.5875244140625	726.6480102539062	666.6849365234375	570.8358154296875	178.0096435546875	496.1224975585938	778.3653564453125	358.9091491699219	625.0653076171875	700.7744140625	48.20632171630859	576.5352172851562	690.5975952148438	81.88576507568359	509.5801391601562	616.0135498046875	106.686637878418	568.2718505859375	569.923828125	197.5831146240234	428.5822143554688	
374	3.73	711.696044921875	948.9026489257812	480.2050170898438	781.7227783203125	949.8479614257812	377.8621826171875	742.2486572265625	1020.098510742188	423.4128723144531	928.5087280273438	1195.344360351562	523.703857421875	725.291748046875	1123.144409179688	418.22705078125	750.4028930664062	1355.425170898438	430.1781921386719	892.19677734375	1287.804809570312	502.5676879882812	673.6782836914062	1233.465454101562	489.1801452636719	770.74365234375	1298.742553710938	343.2659606933594	885.6910400390625	1349.872802734375	319.9868774414062	911.7909545898438	1224.21923828125	262.6234741210938	951.2308349609375	1017.419128417969	245.5476837158203	858.2373046875	999.95654296875	276.1373291015625	1035.04443359375	840.6663818359375	314.4384765625	983.4660034179688	798.4378662109375	248.0661315917969	974.8973999023438	935.5745239257812	251.5866546630859	1055.603515625	685.0220947265625	324.5325012207031	1011.178039550781	747.6414184570312	261.3070068359375	1060.1689453125	765.743408203125	299.3664855957031	732.4380493164062	1355.515625	587.2508544921875	691.48193359375	1289.154418945312	631.2171630859375	667.2766723632812	1023.570129394531	674.1597900390625	646.5032348632812	1008.846008300781	612.2108154296875	754.238037109375	818.3184814453125	712.6397094726562	666.3565673828125	799.7608032226562	699.6188354492188	664.4970703125	970.326416015625	682.8731689453125	745.9766235351562	657.8211669921875	717.3338012695312	746.4846801757812	725.1337890625	740.3174438476562	680.7872924804688	725.9518432617188	714.3548583984375	744.1365966796875	1512.27490234375	516.7583618164062	922.9774780273438	1579.535400390625	456.7392578125	857.8901977539062	1574.629638671875	565.9100341796875	815.4783325195312	1515.874145507812	371.47509765625	946.8550415039062	881.2542724609375	332.1062927246094	735.0344848632812	854.351806640625	648.1642456054688	850.7828979492188	905.9158325195312	644.2113647460938	980.7646484375	921.4534301757812	440.5018310546875	1002.279296875	472.2818908691406	447.2398681640625	998.8734130859375	625.2808837890625	402.079833984375	953.5317993164062	39.95255661010742	439.1734924316406	999.8521118164062	316.4302368164062	444.8159790039062	1087.84521484375	28.57381820678711	597.7592163085938	1003.769958496094	36.01622772216797	581.9227905273438	1048.648681640625	33.33578872680664	490.50146484375	882.2199096679688	38.20562362670898	467.8805236816406	835.9921875	477.7730712890625	661.76513671875	776.9309692382812	728.4758911132812	669.5171508789062	587.00732421875	171.6403350830078	504.4049987792969	789.260986328125	359.9658813476562	631.235595703125	719.8988037109375	47.34244155883789	588.4730834960938	709.1650390625	79.21566009521484	520.6090698242188	633.7027587890625	103.1948165893555	578.3837280273438	585.9129638671875	189.9294738769531	436.4871520996094	
375	3.74	716.239013671875	949.8976440429688	481.9679260253906	786.4901733398438	950.8202514648438	379.7856140136719	747.7047119140625	1021.313415527344	424.7847900390625	933.6793823242188	1196.187255859375	526.2667236328125	730.9030151367188	1124.358764648438	419.52734375	756.3829956054688	1356.583984375	431.8769836425781	897.6025390625	1288.748413085938	505.0943603515625	678.8799438476562	1234.76953125	490.0420532226562	777.264892578125	1300.017211914062	344.9913330078125	892.3618774414062	1351.22998046875	322.6681518554688	919.489013671875	1225.779541015625	265.373779296875	960.722900390625	1019.207702636719	248.8715362548828	867.4747924804688	1001.1376953125	278.1995239257812	1045.260131835938	843.4286499023438	318.8886108398438	994.9659423828125	800.7166748046875	251.7300872802734	984.9745483398438	937.764404296875	255.2764739990234	1067.181640625	687.97705078125	329.1116027832031	1022.916076660156	750.1658935546875	265.4040832519531	1071.33349609375	768.7997436523438	304.0937805175781	737.3807983398438	1356.487548828125	588.805419921875	695.86669921875	1290.191284179688	632.3182373046875	669.7203369140625	1024.843994140625	673.8903198242188	649.5285034179688	1010.140686035156	611.9042358398438	755.791259765625	819.3477783203125	713.4345092773438	668.0333251953125	800.7395629882812	699.2415161132812	666.6690063476562	971.3807373046875	682.45947265625	747.6538696289062	658.874755859375	718.1459350585938	747.610107421875	726.1802368164062	741.060302734375	682.3440551757812	726.9297485351562	714.1647338867188	748.9658813476562	1512.932006835938	518.2396240234375	927.7901000976562	1581.035522460938	459.1430969238281	862.1073608398438	1575.981567382812	567.9742431640625	821.0308227539062	1516.616943359375	373.4637145996094	951.417724609375	881.9221801757812	334.0198059082031	739.5430297851562	855.724365234375	650.1854248046875	855.2807006835938	907.1290283203125	645.9629516601562	985.6526489257812	922.1210327148438	442.4692077636719	1003.706237792969	472.0906677246094	447.7855529785156	1001.553894042969	625.2410278320312	403.26904296875	953.4843139648438	40.00220108032227	439.3393859863281	1000.666320800781	316.2524719238281	445.2227172851562	1087.86328125	28.45418167114258	597.911376953125	1003.720031738281	35.88010406494141	582.0882568359375	1048.5634765625	33.33992767333984	490.6783752441406	882.1404418945312	38.18865203857422	468.1158752441406	844.0088500976562	480.040283203125	665.6976318359375	782.01416015625	730.1974487304688	672.2507934570312	603.32470703125	164.6242065429688	512.8529052734375	799.890380859375	360.6802978515625	637.3327026367188	739.40087890625	46.27125930786133	600.283203125	728.0123901367188	76.34144592285156	531.5918579101562	651.6283569335938	99.12266540527344	588.4837646484375	602.0868530273438	181.7328643798828	444.6204833984375	
